<?xml version="1.0" encoding="iso-8859-1"?>
<!-- Uploaded to: SVG Repo, www.svgrepo.com, Generator: SVG Repo Mixer Tools -->
<svg height="800px" width="800px" version="1.1" id="Layer_1" xmlns="http://www.w3.org/2000/svg" xmlns:xlink="http://www.w3.org/1999/xlink" 
	 viewBox="0 0 392.577 392.577" xml:space="preserve">
<polygon style="fill:#FFFFFF;" points="95.964,224.666 311.043,224.666 365.346,91.624 77.928,91.624 "/>
<path style="fill:#FFC10D;" d="M102.882,113.41l1.293,9.438h45.77c6.012,0,10.925,4.848,10.925,10.925
	c0,6.012-4.848,10.925-10.925,10.925h-42.796l2.909,21.786h16.097c6.012,0,10.925,4.848,10.925,10.925
	c0,6.012-4.848,10.925-10.925,10.925h-13.059l2.004,14.545h181.333l36.461-89.406H102.882V113.41z"/>
<g>
	<path style="fill:#56ACE0;" d="M124.667,340.965c-8.21,0-14.804,6.659-14.804,14.869s6.659,14.869,14.804,14.869
		c8.21,0,14.804-6.659,14.804-14.869S132.748,340.965,124.667,340.965z"/>
	<path style="fill:#56ACE0;" d="M300.118,340.965c-8.21,0-14.869,6.659-14.869,14.869s6.659,14.869,14.869,14.869
		s14.869-6.659,14.869-14.869S308.328,340.965,300.118,340.965z"/>
</g>
<g>
	<path style="fill:#194F82;" d="M124.667,319.18c-20.17,0-36.655,16.485-36.655,36.655s16.485,36.655,36.655,36.655
		s36.655-16.485,36.655-36.655C161.322,335.6,144.837,319.18,124.667,319.18z M124.667,370.638c-8.21,0-14.804-6.659-14.804-14.869
		s6.659-14.869,14.804-14.869c8.21,0,14.804,6.659,14.804,14.869S132.748,370.638,124.667,370.638z"/>
	<path style="fill:#194F82;" d="M300.118,319.18c-20.17,0-36.655,16.485-36.655,36.655s16.485,36.655,36.655,36.655
		s36.655-16.485,36.655-36.655C336.837,335.6,320.417,319.18,300.118,319.18z M300.118,370.638c-8.21,0-14.869-6.659-14.869-14.869
		s6.659-14.869,14.869-14.869s14.869,6.659,14.869,14.869S308.328,370.638,300.118,370.638z"/>
	<path style="fill:#194F82;" d="M256.676,147.22h-22.238v-22.238c0-6.012-4.848-10.925-10.925-10.925
		c-6.012,0-10.925,4.848-10.925,10.925v22.238h-22.238c-6.012,0-10.925,4.848-10.925,10.925c0,6.012,4.848,10.925,10.925,10.925
		h22.238v22.238c0,6.012,4.848,10.925,10.925,10.925c6.012,0,10.925-4.848,10.925-10.925v-22.238h22.238
		c6.012,0,10.925-4.848,10.925-10.925C267.536,152.068,262.688,147.22,256.676,147.22z"/>
	<path style="fill:#194F82;" d="M353.516,224.666h-18.877l57.018-139.766c3.297-7.434-2.78-14.998-10.15-14.998H74.954
		l-6.077-44.994c-0.517-4.202-3.491-7.564-7.434-8.857L14.316,0.666C8.498-1.273,2.421,1.83,0.546,7.519s1.228,11.895,6.982,13.77
		l40.663,13.317L75.73,237.079c0.711,5.43,5.301,9.438,10.796,9.438h267.119c9.438,0,17.067,7.628,17.067,17.067
		s-7.628,17.067-17.067,17.067H73.532c-6.012,0-10.925,4.848-10.925,10.925c0,6.012,4.848,10.925,10.925,10.925h280.048
		c21.463,0,38.853-17.455,38.853-38.853S375.043,224.666,353.516,224.666z M95.964,224.666L77.863,91.624h287.483l-54.238,133.042
		H95.964z"/>
</g>
</svg>