<?xml version="1.0" encoding="iso-8859-1"?>
<!-- Uploaded to: SVG Repo, www.svgrepo.com, Generator: SVG Repo Mixer Tools -->
<svg version="1.1" id="Layer_1" xmlns="http://www.w3.org/2000/svg" xmlns:xlink="http://www.w3.org/1999/xlink" 
	 viewBox="0 0 512.001 512.001" xml:space="preserve">
<rect x="378.351" y="280.987" style="fill:#EEB45D;" width="123.202" height="175.431"/>
<path style="fill:#FFFFFF;" d="M213.864,319.119v20.353c0,6.799-4.088,12.932-10.365,15.549l-67.241,28.017
	c-14.206,5.92-23.459,22.008-23.459,37.397v81.092h286.352v-81.092c0-15.389-9.254-31.479-23.459-37.397l-67.242-28.016
	c-6.277-2.615-10.365-8.749-10.365-15.549V319.12h-84.221V319.119z"/>
<path style="fill:#27B5F7;" d="M375.692,383.037l-67.242-28.016c-2.003-0.835-3.78-2.03-5.276-3.489l-47.103,15.351l-47.232-15.42
	c-1.51,1.489-3.308,2.71-5.342,3.558l-67.241,28.016c-14.206,5.92-23.459,22.008-23.459,37.397v81.092h286.352v-81.092
	C399.151,405.046,389.896,388.956,375.692,383.037z"/>
<path style="fill:#FEBBA0;" d="M162.311,168.721h-0.368v30.443c-12.925,0-23.403,10.478-23.403,23.403s10.478,23.403,23.403,23.403
	v17.472c1.126,14.735,8.311,27.853,19.192,35.038l56.575,32.343c11.36,7.503,25.173,7.503,36.533,0l56.405-32.343
	c10.879-7.185,18.233-20.303,19.36-35.038V245.97c12.925,0,23.403-10.478,23.403-23.403c0-12.925-10.478-23.403-23.403-23.403
	v-30.443H162.311z"/>
<path style="fill:#304967;" d="M350.088,267.34c-4.573,3.171-6.09,3.855-13.768,3.855c-18.03,0-31.259-23.519-54.826-23.519
	c-6.555,0-15.603,2.528-25.489,11.332c-9.886-8.803-18.934-11.332-25.489-11.332c-23.566,0-36.797,23.519-54.826,23.519
	c-7.678,0-9.195-0.684-13.768-3.855c-5.023-3.483-5.407,0.083-4.561,2.822c4.896,13.292,23.265,35.956,48.432,35.956
	c23.214,0,39.022-6.122,50.212-19.742c11.19,13.62,26.997,19.742,50.212,19.742c25.167,0,43.537-22.665,48.432-35.956
	C355.494,267.422,355.111,263.856,350.088,267.34z"/>
<g>
	<path style="fill:#FFFFFF;" d="M245.74,407.099c-13.845,13.845-39.814,10.323-39.814,10.323s-3.523-25.969,10.323-39.814
		c13.845-13.845,39.814-10.323,39.814-10.323S259.584,393.253,245.74,407.099z"/>
	<path style="fill:#FFFFFF;" d="M266.392,407.099c13.845,13.845,39.814,10.323,39.814,10.323s3.523-25.969-10.323-39.814
		c-13.845-13.845-39.814-10.323-39.814-10.323S252.547,393.253,266.392,407.099z"/>
	<path style="fill:#FFFFFF;" d="M387.632,74.873c0-27.697-22.453-50.15-50.15-50.15c-12.124,0-23.242,4.302-31.913,11.463
		c-10.1-15.475-27.557-25.712-47.417-25.712c-20.891,0-39.124,11.328-48.93,28.168c-9.005-8.615-21.206-13.919-34.654-13.919
		c-27.697,0-50.15,22.453-50.15,50.15c0,23.307,15.901,42.896,37.444,48.522v56.335h188.063v-56.265
		C371.604,117.93,387.632,98.274,387.632,74.873z"/>
</g>
<rect x="453.44" y="39.525" style="fill:#EEB45D;" width="48.113" height="161.682"/>
<path style="fill:#E6E6E6;" d="M10.499,124.55L10.499,124.55c31.035,0,56.426,25.392,56.426,56.426V305.96H10.577L10.499,124.55
	L10.499,124.55z"/>
<path style="fill:#314967;" d="M42.838,305.961v65.632c0,8.867-7.255,16.122-16.121,16.122l0,0c-8.867,0-16.122-7.255-16.122-16.122
	v-65.632H42.838z"/>
<path d="M10.585,491.078h-0.137C4.679,491.078,0,495.756,0,501.526c0,5.77,4.679,10.448,10.448,10.448h0.137
	c5.769,0,10.448-4.678,10.448-10.448C21.033,495.756,16.354,491.078,10.585,491.078z"/>
<path d="M501.501,491.078h-0.137c-5.769,0-10.448,4.678-10.448,10.448c0,5.77,4.679,10.448,10.448,10.448h0.137
	c5.769,0,10.448-4.678,10.448-10.448C511.949,495.756,507.27,491.078,501.501,491.078z"/>
<path d="M294.078,212.118c-6.439,0-11.679,5.239-11.679,11.679c0,6.439,5.24,11.678,11.679,11.678s11.678-5.239,11.678-11.678
	C305.755,217.358,300.517,212.118,294.078,212.118z"/>
<path d="M229.549,223.797c0-6.44-5.24-11.679-11.679-11.679s-11.678,5.239-11.678,11.679c0,6.439,5.239,11.678,11.678,11.678
	S229.549,230.236,229.549,223.797z"/>
<path d="M281.275,456.078h-0.137c-5.769,0-10.448,4.678-10.448,10.448s4.679,10.448,10.448,10.448h0.137
	c5.769,0,10.448-4.678,10.448-10.448S287.044,456.078,281.275,456.078z"/>
<path d="M230.993,456.077h-0.137c-5.769,0-10.448,4.678-10.448,10.448c0,5.77,4.679,10.448,10.448,10.448h0.137
	c5.769,0,10.448-4.678,10.448-10.448C241.441,460.755,236.763,456.077,230.993,456.077z"/>
<path d="M501.552,29.077h-13.608V10.606c0-5.77-4.679-10.448-10.448-10.448c-5.769,0-10.448,4.678-10.448,10.448v18.471h-13.608
	c-5.769,0-10.448,4.678-10.448,10.448v161.678c0,5.77,4.679,10.448,10.448,10.448h13.608v18.231c0,5.77,4.679,10.448,10.448,10.448
	c5.769,0,10.448-4.678,10.448-10.448V211.65h13.608c5.769,0,10.448-4.678,10.448-10.448V39.525
	C512,33.754,507.321,29.077,501.552,29.077z M491.104,190.754h-27.218V49.972h27.218V190.754z"/>
<path d="M10.499,114.102c-2.772,0-5.43,1.101-7.389,3.062c-1.96,1.96-3.06,4.619-3.059,7.391l0.095,247.038
	c0,14.65,11.919,26.57,26.57,26.57s26.57-11.919,26.57-26.57v-55.184h13.64c5.769,0,10.448-4.678,10.448-10.448V180.976
	C77.373,144.102,47.374,114.102,10.499,114.102z M32.39,371.593c0,3.076-2.598,5.674-5.674,5.674s-5.674-2.598-5.674-5.674v-55.184
	h11.348v55.184H32.39z M56.477,295.514H21.021l-0.069-159.316c20.333,4.745,35.525,23.022,35.525,44.78V295.514z"/>
<path d="M470.141,335.355c5.769,0,10.448-4.678,10.448-10.448v-0.137c0-5.77-4.679-10.448-10.448-10.448
	s-10.448,4.678-10.448,10.448v0.137C459.693,330.677,464.372,335.355,470.141,335.355z"/>
<path d="M470.142,348.259c-5.769,0-10.448,4.678-10.448,10.448v39.199c0,5.77,4.679,10.448,10.448,10.448
	s10.448-4.678,10.448-10.448v-39.199C480.59,352.936,475.913,348.259,470.142,348.259z"/>
<path d="M197.055,456.078h-39.198c-5.769,0-10.448,4.678-10.448,10.448s4.679,10.448,10.448,10.448h39.199
	c5.769,0,10.448-4.678,10.448-10.448S202.826,456.078,197.055,456.078z"/>
<path d="M501.552,270.54h-32.069c1.156-3.264,1.791-6.771,1.791-10.426c0-17.27-14.05-31.322-31.322-31.322
	s-31.322,14.051-31.322,31.322c0,3.655,0.635,7.162,1.791,10.426h-32.069c-5.769,0-10.448,4.678-10.448,10.448v87.487
	l-55.437-23.098c-2.39-0.996-3.936-3.313-3.936-5.904v-16.27l21.372-12.254c17.338-8.401,29.915-24.6,34.546-37.176
	c0.065-0.174,0.124-0.351,0.179-0.529c1.937-6.276,0.346-12.222-4.155-15.516c-0.006-0.005-0.016-0.01-0.022-0.016v-2.944
	c13.568-4.413,23.402-17.181,23.402-32.202s-9.835-27.788-23.402-32.202l-0.079-59.365c22.558-9.171,37.707-31.205,37.707-56.127
	c0-33.414-27.185-60.598-60.598-60.598c-10.429,0-20.662,2.71-29.669,7.762c-12.61-13.938-30.523-22.011-49.661-22.011
	c-19.783,0-38.483,8.853-51.107,23.684c-9.637-6.14-20.836-9.436-32.476-9.436c-33.414,0-60.598,27.184-60.598,60.598
	c0,24.783,15.043,46.773,37.445,56.016l0.08,59.478c-13.568,4.413-23.402,17.181-23.402,32.202s9.835,27.788,23.402,32.202v2.991
	c-4.468,3.299-6.047,9.226-4.118,15.482c0.055,0.18,0.115,0.357,0.18,0.534c4.065,11.033,14.245,24.86,28.389,33.759
	c0.003,0.003,3.066,1.844,4.558,2.621l22.91,13.098v16.22c0,2.59-1.545,4.907-3.936,5.904l-67.241,28.017
	c-17.597,7.332-29.887,26.677-29.887,47.041v70.644H44.386c-5.769,0-10.448,4.678-10.448,10.448c0,5.77,4.679,10.448,10.448,10.448
	h423.178c5.769,0,10.448-4.678,10.448-10.448c0-5.77-4.679-10.448-10.448-10.448h-57.965v-24.216h91.954
	c5.769,0,10.448-4.678,10.448-10.448V280.988C512,275.217,507.321,270.54,501.552,270.54z M439.953,249.688
	c5.748,0,10.426,4.678,10.426,10.426c0,5.748-4.678,10.426-10.426,10.426c-5.749,0-10.426-4.678-10.426-10.426
	C429.527,254.365,434.204,249.688,439.953,249.688z M134.866,74.873c0-21.892,17.811-39.702,39.702-39.702
	c10.261,0,20.004,3.914,27.431,11.019c2.314,2.213,5.518,3.243,8.682,2.796c3.17-0.447,5.96-2.323,7.57-5.088
	c8.252-14.173,23.541-22.977,39.901-22.977c15.641,0,30.096,7.841,38.668,20.975c1.626,2.491,4.236,4.171,7.176,4.618
	c2.94,0.45,5.932-0.378,8.226-2.272c7.084-5.851,16.055-9.072,25.262-9.072c21.892,0,39.702,17.811,39.702,39.702
	c0,18.164-12.272,33.982-29.842,38.469c-4.627,1.181-7.863,5.348-7.863,10.123v45.817H172.313v-45.886
	c0-4.754-3.209-8.908-7.809-10.108C147.054,108.73,134.866,92.933,134.866,74.873z M175.69,260.747
	c-1.471,0-2.498-0.001-3.299-0.054v-14.724c0-5.77-4.679-10.448-10.448-10.448c-7.143,0-12.954-5.812-12.954-12.954
	c0-7.142,5.812-12.954,12.954-12.954c5.769,0,10.448-4.678,10.448-10.448v-8.986h167.167v8.986c0,5.77,4.679,10.448,10.448,10.448
	c7.143,0,12.954,5.812,12.954,12.954c0,7.142-5.812,12.954-12.954,12.954c-5.769,0-10.448,4.678-10.448,10.448v14.727
	c-0.793,0.049-1.803,0.05-3.239,0.05c-5.138,0-10.948-4.038-17.676-8.714c-9.492-6.596-21.305-14.805-37.15-14.805
	c-6.248,0-15.301,1.623-25.489,8.537c-10.189-6.914-19.241-8.537-25.489-8.537c-15.844,0-27.658,8.209-37.15,14.805
	C186.639,256.709,180.829,260.747,175.69,260.747z M190.922,292.041l-4.288-2.451c-3.084-2.089-5.762-4.851-7.95-8.098
	c10.271-0.962,18.567-6.712,26.606-12.299c8.191-5.692,15.927-11.069,25.224-11.069c3.282,0,10.054,1.128,18.541,8.685
	c3.961,3.527,9.936,3.527,13.897,0c8.487-7.557,15.259-8.685,18.541-8.685c9.297,0,17.033,5.376,25.224,11.069
	c7.986,5.55,16.223,11.265,26.401,12.284c-2.216,3.259-4.912,6.04-7.979,8.118l-5.257,3.014c-4.211,1.894-8.797,3.061-13.666,3.061
	c-20.092,0-33.09-4.912-42.139-15.927c-1.984-2.416-4.946-3.816-8.073-3.816s-6.088,1.4-8.073,3.816
	c-9.049,11.014-22.046,15.927-42.139,15.927C200.456,295.67,195.458,294.269,190.922,292.041z M223.677,345.317
	c0.413-1.893,0.634-3.849,0.634-5.845v-4.274l7.939,4.539c7.333,4.763,15.529,7.144,23.725,7.144c8.198,0,16.396-2.383,23.731-7.148
	l7.931-4.547v4.288c0,2.023,0.226,4.006,0.649,5.923l-32.212,10.498L223.677,345.317z M245.526,382.33
	c-0.831,6.264-2.839,13.044-7.175,17.38c-5.531,5.531-14.966,7.291-22.338,7.623c0.332-7.38,2.092-16.811,7.621-22.339
	c5.347-5.346,14.334-7.164,21.588-7.58C245.269,378.959,245.366,380.606,245.526,382.33z M229.477,314.082
	c10.397-2.431,19.147-6.672,26.528-12.875c7.364,6.188,16.092,10.424,26.457,12.858l-13.417,7.694
	c-0.19,0.11-0.377,0.225-0.56,0.346c-7.834,5.173-17.184,5.173-25.018,0c-0.187-0.123-0.377-0.241-0.573-0.352L229.477,314.082z
	 M266.909,377.419c7.22,0.425,16.252,2.24,21.586,7.575c5.531,5.53,7.291,14.964,7.624,22.335c-7.333-0.343-16.82-2.099-22.34-7.619
	c-4.337-4.337-6.349-11.074-7.179-17.335C266.764,380.636,266.861,378.976,266.909,377.419z M123.247,420.434
	c0-11.776,7.321-23.707,17.029-27.753l67.241-28.017c1.113-0.464,2.174-1.006,3.197-1.599l5.042,1.646
	c-2.431,1.545-4.755,3.364-6.898,5.506c-17.014,17.016-13.718,45.423-13.287,48.606c0.631,4.656,4.293,8.317,8.949,8.949
	c0.98,0.133,4.345,0.537,9.035,0.537c10.551,0,27.792-2.046,39.57-13.825c1.056-1.056,2.033-2.156,2.938-3.291
	c0.905,1.135,1.882,2.235,2.938,3.291c11.78,11.78,29.019,13.825,39.57,13.825c4.688,0,8.057-0.404,9.035-0.537
	c4.656-0.631,8.318-4.293,8.949-8.949c0.431-3.183,3.728-31.591-13.288-48.607c-2.135-2.134-4.449-3.949-6.871-5.49l4.93-1.607
	c0.994,0.569,2.023,1.095,3.101,1.544l67.241,28.016c9.707,4.044,17.028,15.976,17.028,27.753v70.644H123.247V420.434z
	 M491.104,445.967h-81.506v-25.533c0-16.635-8.203-32.585-20.797-41.867v-87.132h102.303V445.967z"/>
<path d="M354.274,456.077h-39.199c-5.769,0-10.448,4.678-10.448,10.448c0,5.77,4.679,10.448,10.448,10.448h39.199
	c5.769,0,10.448-4.678,10.448-10.448C364.722,460.755,360.043,456.077,354.274,456.077z"/>
</svg>