<?xml version="1.0" encoding="iso-8859-1"?>
<!-- Uploaded to: SVG Repo, www.svgrepo.com, Generator: SVG Repo Mixer Tools -->
<svg version="1.1" id="Layer_1" xmlns="http://www.w3.org/2000/svg" xmlns:xlink="http://www.w3.org/1999/xlink" 
	 viewBox="0 0 511.999 511.999" xml:space="preserve">
<path style="fill:#F76B4F;" d="M481.362,458.291v-94.724h9.061c3.906,0,7.072-3.167,7.072-7.072v-34.203
	c0-3.91-3.166-7.075-7.072-7.075h-9.1c-0.624-19.286-12.812-35.639-29.863-42.359v-10.599c0-3.456-2.802-6.258-6.258-6.258h-22.061
	c-3.456,0-6.258,2.802-6.258,6.258v10.598c-17.051,6.72-29.241,23.073-29.864,42.359h-7.858c-4.593,0-8.316,3.723-8.316,8.316
	v33.221c0,3.763,3.05,6.813,6.813,6.813h9.321v94.689h-0.07c-11.621,0-21.041,9.421-21.041,21.041v22.229h135.685V479.15
	C501.552,467.85,492.573,458.667,481.362,458.291z"/>
<circle style="fill:#DEDDE1;" cx="433.715" cy="344.134" r="25.57"/>
<g>
	<circle style="fill:#F76B4F;" cx="255.974" cy="48.259" r="37.79"/>
	<ellipse style="fill:#F76B4F;" cx="255.974" cy="152.749" rx="111.678" ry="114.321"/>
</g>
<circle style="fill:#FFAF18;" cx="255.974" cy="101.366" r="29.254"/>
<ellipse style="fill:#F76B4F;" cx="255.974" cy="171.273" rx="173.143" ry="69.905"/>
<rect x="87.575" y="258.085" style="fill:#636187;" width="25.211" height="243.437"/>
<path style="fill:#FF5B59;" d="M81.91,342.04c14.579-4.411,28.11-4.173,37.835-1.143c7.998,2.491,10.655-2.193,10.655-7.208
	s0-43.813,0-48.828c0-5.016-2.657-9.7-10.655-7.208c-9.725,3.029-23.256,3.267-37.835-1.143
	c-19.85-6.005-33.502-30.484-33.502-30.484s-23.525,16.27-23.525,63.25s23.525,63.25,23.525,63.25S62.06,348.046,81.91,342.04z"/>
<path style="fill:#FEBBA0;" d="M213.864,319.119v20.353c0,6.799-4.088,12.932-10.365,15.549l-67.241,28.017
	c-14.206,5.92-23.459,22.008-23.459,37.397v81.092h286.352v-81.092c0-15.389-9.254-31.479-23.459-37.397l-67.242-28.016
	c-6.277-2.615-10.365-8.749-10.365-15.549V319.12h-84.221V319.119z"/>
<path style="fill:#DEDDE1;" d="M375.691,383.037l-67.241-28.016c-5.2-2.166-8.889-6.749-10.005-12.124
	c-8.884,14.064-24.556,23.413-42.42,23.413c-17.916,0-33.629-9.403-42.498-23.535c-1.085,5.427-4.789,10.063-10.029,12.247
	l-67.241,28.017c-14.206,5.92-23.459,22.008-23.459,37.397v81.092h286.352v-81.092C399.15,405.046,389.896,388.956,375.691,383.037z
	"/>
<path style="fill:#FEBBA0;" d="M258.793,159.878c-35.188,0-68.222,5.018-96.85,13.804v25.48c-12.925,0-23.403,10.478-23.403,23.403
	c0,12.925,10.478,23.403,23.403,23.403v17.472c1.126,14.735,8.311,27.853,19.192,35.038l56.575,32.343
	c11.36,7.503,25.173,7.503,36.533,0l56.404-32.343c10.879-7.185,18.233-20.303,19.36-35.038v-17.472
	c12.925,0,23.403-10.478,23.403-23.403c0-12.925-10.478-23.403-23.403-23.403v-27.147
	C322.711,164.266,291.693,159.878,258.793,159.878z"/>
<g>
	<path style="fill:#908EA8;" d="M213.527,342.774c-1.085,5.427-4.789,10.063-10.029,12.247l-1.628,0.678l19.502,54.624
		l34.653-44.014C238.108,366.309,222.397,356.907,213.527,342.774z"/>
	<path style="fill:#908EA8;" d="M298.526,342.774c1.086,5.427,4.789,10.063,10.029,12.247l1.628,0.678l-19.502,54.624
		l-34.653-44.014C273.944,366.309,289.656,356.907,298.526,342.774z"/>
</g>
<circle style="fill:#FFAF18;" cx="312.874" cy="452.51" r="18.806"/>
<path style="fill:#F76B4F;" d="M87.814,96.315c0,21.35-17.307,38.657-38.657,38.657s-38.657-17.307-38.657-38.657
	s13.844-15.841,30.038-65.401C74.229,52.333,87.814,74.966,87.814,96.315z"/>
<path style="fill:#FFAF18;" d="M65.521,115.435c0,10.607-7.327,19.205-16.365,19.205s-16.365-8.599-16.365-19.205
	s7.192-10.172,12.716-32.492C59.771,93.584,65.521,104.828,65.521,115.435z"/>
<path d="M10.585,511.974h-0.137C4.678,511.974,0,507.296,0,501.526c0-5.77,4.678-10.448,10.448-10.448h0.137
	c5.77,0,10.448,4.678,10.448,10.448C21.033,507.296,16.355,511.974,10.585,511.974z"/>
<path d="M501.501,511.974h-0.137c-5.77,0-10.448-4.678-10.448-10.448c0-5.77,4.678-10.448,10.448-10.448h0.137
	c5.77,0,10.448,4.678,10.448,10.448C511.949,507.296,507.271,511.974,501.501,511.974z"/>
<path d="M294.077,235.475c-6.44,0-11.679-5.239-11.679-11.678c0-6.44,5.239-11.679,11.679-11.679c6.44,0,11.679,5.239,11.679,11.679
	C305.756,230.236,300.517,235.475,294.077,235.475z"/>
<path d="M217.872,235.475c-6.44,0-11.679-5.239-11.679-11.678c0-6.44,5.239-11.679,11.679-11.679s11.679,5.239,11.679,11.679
	C229.549,230.236,224.311,235.475,217.872,235.475z"/>
<path d="M283.921,245.684h-27.777c-0.009,0-0.02,0.001-0.029,0.001c-0.009,0-0.02-0.001-0.029-0.001h-27.777
	c-12.885,0-23.37,10.483-23.37,23.37v3.836c0,5.77,4.678,10.448,10.448,10.448h27.777c4.787,0,9.241-1.449,12.951-3.928
	c3.71,2.479,8.164,3.928,12.951,3.928h27.777c5.77,0,10.448-4.678,10.448-10.448v-3.836
	C307.289,256.169,296.806,245.684,283.921,245.684z"/>
<path d="M433.709,308.118c-19.86,0-36.018,16.158-36.018,36.018c0,19.861,16.158,36.018,36.018,36.018s36.018-16.158,36.018-36.018
	C469.728,324.276,453.57,308.118,433.709,308.118z M433.709,359.258c-8.339,0-15.122-6.784-15.122-15.122
	c0-8.338,6.784-15.122,15.122-15.122c8.338,0,15.122,6.784,15.122,15.122C448.832,352.475,442.048,359.258,433.709,359.258z"/>
<path d="M342.131,452.508c0-16.131-13.124-29.254-29.254-29.254c-16.131,0-29.254,13.124-29.254,29.254s13.124,29.254,29.254,29.254
	C329.008,481.763,342.131,468.64,342.131,452.508z M304.519,452.508c0-4.609,3.75-8.358,8.358-8.358c4.609,0,8.358,3.75,8.358,8.358
	c0,4.609-3.75,8.358-8.358,8.358C308.268,460.867,304.519,457.118,304.519,452.508z"/>
<path d="M46.142,22.097c-2.528-1.608-5.624-2.051-8.505-1.22c-2.878,0.832-5.262,2.859-6.544,5.567
	C23.69,42.081,17.67,51.868,12.833,59.731C5.136,72.243,0.051,80.51,0.051,96.315c0,27.077,22.028,49.105,49.105,49.105
	s49.105-22.028,49.105-49.105C98.262,69.052,80.726,44.082,46.142,22.097z M49.156,124.193c-2.799,0-5.917-3.596-5.917-8.757
	c0-1.918,0.256-2.403,2.263-5.617c1.279-2.047,2.864-4.587,4.531-8.102c3.352,4.527,5.04,9.113,5.04,13.719
	C55.073,120.596,51.955,124.193,49.156,124.193z M75.121,107.34c-1.998-9.563-8.047-21.342-23.366-32.77
	c-2.804-2.092-6.47-2.641-9.768-1.463c-3.295,1.18-5.781,3.931-6.622,7.327c-2.527,10.213-5.217,14.518-7.588,18.318
	c-1.596,2.558-3.327,5.329-4.395,9.008c-1.561-3.5-2.435-7.371-2.435-11.445c0-9.893,2.637-14.18,9.684-25.636
	c3.685-5.99,8.406-13.666,13.939-24.358c21.508,15.864,32.796,33.005,32.796,49.995C77.366,100.225,76.565,103.952,75.121,107.34z"
	/>
<path d="M426.816,447.851c-5.77,0-10.448,4.678-10.448,10.448c0,5.77,4.678,10.448,10.448,10.448h0.137
	c5.77,0,10.448-4.678,10.448-10.448c0-5.77-4.678-10.448-10.448-10.448H426.816z"/>
<path d="M491.811,449.85v-75.89c9.016-0.709,16.134-8.272,16.134-17.467v-34.203c0-9.623-7.795-17.458-17.402-17.522
	c-3.466-16.343-13.898-30.445-28.634-38.529v-3.982c0-9.212-7.494-16.706-16.706-16.706h-22.062
	c-9.212,0-16.706,7.494-16.706,16.706v3.982c-14.752,8.092-25.191,22.213-28.645,38.578c-9.708,0.704-17.392,8.829-17.392,18.714
	v33.221c0,3.688,1.177,7.098,3.155,9.907l-51.083-21.285c-2.391-0.996-3.936-3.313-3.936-5.904v-16.27l27.31-15.659
	c0.19-0.109,0.377-0.225,0.561-0.346c13.674-9.03,22.654-25.091,24.02-42.961c0.021-0.264,0.03-9.47,0.03-9.47
	c11.227-3.652,19.878-13.03,22.537-24.664c36.537-14.903,56.57-35.651,56.57-58.828c0-23.218-20.331-44.214-57.247-59.119
	c-4.006-1.617-8.179-3.14-12.477-4.582c-12.231-32.222-36.703-57.137-66.836-69.978c-4.912-21.531-24.407-37.571-47.026-37.571
	s-42.115,16.04-47.026,37.571c-30.134,12.842-54.604,37.756-66.837,69.978c-4.298,1.444-8.471,2.966-12.477,4.582
	c-36.917,14.905-57.247,35.9-57.247,59.119c0,23.177,20.033,43.925,56.57,58.828c2.658,11.635,11.31,21.012,22.536,24.663
	c0,0,0.01,9.206,0.03,9.47c1.372,17.943,10.288,34.003,23.852,42.961c0.187,0.123,0.378,0.24,0.573,0.352l27.467,15.702v16.22
	c0,2.59-1.545,4.907-3.936,5.904l-67.242,28.017c-3.193,1.33-6.208,3.061-9.01,5.117v-26.487c4.848,0.135,8.348-1.491,10.637-3.175
	c4.503-3.313,6.982-8.697,6.982-15.158V284.86c0-6.462-2.48-11.845-6.982-15.158c-2.289-1.684-5.789-3.311-10.637-3.175v-8.437
	c0-5.77-4.678-10.448-10.448-10.448H87.574c-5.77,0-10.448,4.678-10.448,10.448v4.593c-9.42-6.285-17.02-17.176-19.594-21.746
	c-1.436-2.572-3.889-4.419-6.759-5.087c-2.866-0.667-5.885-0.091-8.309,1.584c-1.144,0.792-28.029,19.982-28.029,71.843
	s26.885,71.051,28.029,71.843c5.001,3.459,12.11,1.798,15.068-3.504c0.095-0.171,8.173-14.208,19.594-21.777V491.08h-32.74
	c-5.77,0-10.448,4.678-10.448,10.448c0,5.77,4.678,10.448,10.448,10.448h423.177c5.77,0,10.448-4.678,10.448-10.448
	c0-5.77-4.678-10.448-10.448-10.448h-57.964v-70.644c0-12.439-4.592-24.493-12.172-33.666v-23.203
	c0-5.77-4.678-10.448-10.448-10.448h-5.686v-27.455h5.724c5.639,0,10.26-4.474,10.443-10.109
	c0.474-14.653,9.602-27.597,23.253-32.977c3.993-1.573,6.617-5.429,6.617-9.721v-6.41h13.683v6.41c0,4.291,2.625,8.146,6.617,9.721
	c13.651,5.38,22.779,18.324,23.252,32.976c0.182,5.636,4.804,10.11,10.443,10.11h5.724v27.455h-5.686
	c-5.77,0-10.448,4.678-10.448,10.448v84.282h-11.205c-5.77,0-10.448,4.678-10.448,10.448c0,5.77,4.678,10.448,10.448,10.448h21.445
	c5.59,0.262,9.949,4.802,9.949,10.406c0,5.77,4.678,10.448,10.448,10.448s10.448-4.678,10.448-10.448
	C512,465.725,503.686,454.32,491.811,449.85z M255.974,20.921c7.794,0,14.93,3.363,19.957,8.738
	c-6.521-1.099-13.187-1.685-19.957-1.685s-13.435,0.586-19.957,1.685C241.044,24.284,248.18,20.921,255.974,20.921z M255.974,48.869
	c36.425,0,69.43,19.965,87.337,51.306c-15.216-3.472-31.56-6.016-48.616-7.544c-3.993-17.699-19.832-30.962-38.721-30.962
	s-34.728,13.264-38.721,30.962c-17.056,1.529-33.4,4.074-48.616,7.544C186.545,68.835,219.55,48.869,255.974,48.869z
	 M271.792,91.207c-0.007,0-0.014,0-0.021,0c-5.225-0.185-10.493-0.284-15.796-0.284s-10.571,0.099-15.796,0.284
	c-0.007,0-0.014,0-0.021,0c3.351-5.196,9.189-8.643,15.817-8.643C262.603,82.565,268.442,86.012,271.792,91.207z M131.25,208.355
	c-23.981-10.821-37.966-24.304-37.966-37.08c0-28.123,66.815-59.457,162.69-59.457s162.69,31.334,162.69,59.457
	c0,12.775-13.985,26.259-37.965,37.079c-3.94-8.473-11.264-15.068-20.246-17.989v-18.349c0-4.671-3.1-8.774-7.594-10.051
	c-29.291-8.318-60.939-12.535-94.067-12.535c-34.96,0-69.51,4.932-99.916,14.264c-4.387,1.347-7.383,5.398-7.383,9.988v16.682
	C142.513,193.287,135.189,199.882,131.25,208.355z M186.636,289.59c-7.983-5.406-13.284-15.291-14.245-26.568v-17.052
	c0-5.77-4.678-10.448-10.448-10.448c-7.143,0-12.954-5.812-12.954-12.954s5.812-12.954,12.954-12.954
	c5.77,0,10.448-4.678,10.448-10.448v-17.642c26.613-7.337,56.307-11.195,86.402-11.195c27.912,0,55.657,3.343,80.765,9.702v19.134
	c0,5.77,4.678,10.448,10.448,10.448c7.143,0,12.955,5.812,12.955,12.954s-5.812,12.954-12.955,12.954
	c-5.77,0-10.448,4.678-10.448,10.448v17.05c-0.949,11.048-6.442,21.173-14.418,26.574l-56.095,32.165
	c-0.191,0.11-0.377,0.225-0.561,0.346c-7.832,5.174-17.185,5.173-25.017,0c-0.187-0.123-0.378-0.241-0.573-0.352L186.636,289.59z
	 M102.332,491.078h-4.311V349.412c1.454-0.143,2.893-0.233,4.311-0.271V491.078z M78.884,332.041L78.884,332.041
	c-13.932,4.215-24.824,15.076-31.655,23.714c-5.399-8.093-11.898-22.762-11.898-46.48c0-23.813,6.457-38.433,11.876-46.508
	c6.83,8.641,17.73,19.522,31.678,23.742c14.4,4.356,28.848,5.02,41.067,1.935v41.661C107.735,327.019,93.283,327.685,78.884,332.041
	z M245.578,491.078H123.246v-14.105h21.157c5.77,0,10.448-4.678,10.448-10.448c0-5.77-4.678-10.448-10.448-10.448h-21.157v-6.791
	h21.157c5.77,0,10.448-4.678,10.448-10.448s-4.678-10.448-10.448-10.448h-21.157v-7.956c0-11.776,7.321-23.707,17.029-27.753
	l55.456-23.106l15.802,44.26c1.279,3.582,4.402,6.185,8.155,6.798c0.563,0.092,1.126,0.137,1.686,0.137
	c3.171,0,6.209-1.446,8.208-3.985l15.996-20.317V491.078z M214.666,360.466c6.39,5.992,13.971,10.493,22.247,13.228l-12.056,15.314
	L214.666,360.466z M224.293,339.98c0.003-0.17,0.019-0.337,0.019-0.508v-4.274l7.938,4.539c7.333,4.763,15.529,7.144,23.725,7.144
	c8.198,0,16.397-2.383,23.731-7.148l7.931-4.548v4.288c0,0.213,0.019,0.422,0.023,0.633c-7.494,9.916-19.079,15.755-31.635,15.755
	C243.408,355.861,231.783,349.974,224.293,339.98z M297.388,360.46l-10.192,28.548l-12.059-15.317
	C283.413,370.955,290.996,366.453,297.388,360.46z M388.703,420.434v7.956h-21.055c-5.77,0-10.448,4.678-10.448,10.448
	s4.678,10.448,10.448,10.448h21.055v6.791h-21.055c-5.77,0-10.448,4.678-10.448,10.448c0,5.77,4.678,10.448,10.448,10.448h21.055
	v14.105H266.474v-94.611l15.998,20.319c2,2.54,5.037,3.985,8.208,3.985c0.56,0,1.123-0.045,1.686-0.137
	c3.753-0.613,6.876-3.217,8.155-6.798l15.789-44.223l55.366,23.069C381.382,396.727,388.703,408.657,388.703,420.434z"/>
</svg>