<?xml version="1.0" encoding="iso-8859-1"?>
<!-- Uploaded to: SVG Repo, www.svgrepo.com, Generator: SVG Repo Mixer Tools -->
<svg version="1.1" id="Layer_1" xmlns="http://www.w3.org/2000/svg" xmlns:xlink="http://www.w3.org/1999/xlink" 
	 viewBox="0 0 512 512" xml:space="preserve">
<circle style="fill:#C8624A;" cx="427.332" cy="406.622" r="74.219"/>
<g>
	<rect x="62.286" y="235.29" style="fill:#ECEBED;" width="44.625" height="121.145"/>
	<rect x="27.763" y="248.895" style="fill:#ECEBED;" width="34.523" height="93.936"/>
</g>
<path style="fill:#FEBBA0;" d="M213.885,298.417v20.355c0,6.8-4.089,12.934-10.366,15.55l-67.248,28.02
	c-14.207,5.92-23.461,22.01-23.461,37.401v81.1h286.38v-81.1c0-15.39-9.255-31.482-23.461-37.401l-67.248-28.02
	c-6.278-2.615-10.366-8.75-10.366-15.55v-20.355H213.885z"/>
<path style="fill:#1990E0;" d="M353.113,480.842v-96.029c0-10.481,3.555-20.17,9.508-27.933l-54.139-22.557
	c-6.278-2.615-10.366-8.75-10.366-15.55l-0.094,37.535c0,23.084-18.887,41.97-41.97,41.97l0,0c-23.084,0-41.97-18.887-41.97-41.97
	l-0.195-37.535c0,6.8-4.089,12.934-10.366,15.55l-54.139,22.558c5.953,7.765,9.508,17.452,9.508,27.933v96.029h194.227V480.842z"/>
<rect x="201.456" y="421.282" style="fill:#FFFFFF;" width="109.453" height="59.559"/>
<g>
	<path style="fill:#FEBBA0;" d="M298.115,304.254v52.052c0,23.084-18.981,41.97-42.064,41.97l0,0
		c-23.084,0-42.166-18.887-42.166-41.97v-52.052"/>
	<path style="fill:#FEBBA0;" d="M350.041,178.45v-30.446c0-51.835-42.022-93.857-93.857-93.857
		c-51.836,0-93.857,42.022-93.857,93.857h-0.368v30.446c-12.926,0-23.406,10.479-23.406,23.406s10.479,23.406,23.406,23.406v17.474
		c1.126,14.736,8.312,27.856,19.194,35.042l56.58,32.346c11.361,7.503,25.176,7.503,36.537,0l56.411-32.346
		c10.881-7.186,18.234-20.305,19.362-35.042v-17.474c12.926,0,23.406-10.479,23.406-23.406
		C373.447,188.928,362.967,178.45,350.041,178.45z"/>
</g>
<polygon style="fill:#FF5957;" points="151.319,151.438 360.783,151.438 350.361,91.335 161.843,91.335 "/>
<path style="fill:#703E41;" d="M342.509,91.335c-13.003-35.133-46.805-60.178-86.459-60.178s-73.455,25.044-86.459,60.178H342.509z"
	/>
<circle style="fill:#FFA036;" cx="449.296" cy="123.643" r="52.245"/>
<path d="M10.586,491.291h-0.137C4.678,491.291,0,486.613,0,480.842c0-5.771,4.678-10.449,10.449-10.449h0.137
	c5.771,0,10.449,4.678,10.449,10.449C21.035,486.613,16.357,491.291,10.586,491.291z"/>
<path d="M501.551,491.291h-0.137c-5.771,0-10.449-4.678-10.449-10.449c0-5.771,4.678-10.449,10.449-10.449h0.137
	c5.771,0,10.449,4.678,10.449,10.449C512,486.613,507.322,491.291,501.551,491.291z"/>
<path d="M294.106,214.764c-6.441,0-11.68-5.239-11.68-11.679c0-6.441,5.239-11.68,11.68-11.68c6.441,0,11.68,5.239,11.68,11.68
	C305.786,209.525,300.547,214.764,294.106,214.764z"/>
<path d="M217.894,214.764c-6.441,0-11.68-5.239-11.68-11.679c0-6.441,5.239-11.68,11.68-11.68s11.68,5.239,11.68,11.68
	C229.572,209.525,224.333,214.764,217.894,214.764z"/>
<path d="M256.044,271.746c-11.391,0-20.66-9.268-20.66-20.66c0-5.771,4.678-10.449,10.449-10.449h20.422
	c5.771,0,10.449,4.678,10.449,10.449C276.703,262.477,267.435,271.746,256.044,271.746z"/>
<path d="M449.297,134.091c-5.771,0-10.449-4.678-10.449-10.449v-10.623c0-5.771,4.678-10.449,10.449-10.449
	c5.771,0,10.449,4.678,10.449,10.449v10.623C459.746,129.413,455.068,134.091,449.297,134.091z"/>
<path d="M459.746,61.836V46.34c0-5.771-4.678-10.449-10.449-10.449c-5.771,0-10.449,4.678-10.449,10.449v15.495
	c-2.466,0.416-4.882,0.975-7.241,1.671l-6.07-6.07c-4.08-4.08-10.697-4.08-14.777,0s-4.08,10.697,0,14.777l1.141,1.141
	c-15.342,11.44-25.298,29.722-25.298,50.287c0,34.569,28.125,62.694,62.694,62.694s62.694-28.124,62.694-62.694
	C511.991,92.634,489.357,66.826,459.746,61.836z M449.297,165.438c-23.046,0-41.796-18.75-41.796-41.796s18.75-41.796,41.796-41.796
	s41.796,18.75,41.796,41.796S472.343,165.438,449.297,165.438z"/>
<path d="M490.094,349.857c-0.327-0.408-0.676-0.802-1.072-1.166c-0.044-0.041-0.092-0.073-0.136-0.113
	c-15.448-16.372-37.32-26.622-61.554-26.622c-22.841,0-44.554,9.189-60.44,25.385L312.5,324.678
	c-2.391-0.996-3.936-3.313-3.936-5.905v-14.518v-1.753l27.313-15.661c0.19-0.109,0.377-0.225,0.561-0.346
	c13.676-9.031,22.657-25.093,24.022-42.965c0.021-0.264,0.03-0.531,0.03-0.796v-8.675c13.569-4.414,23.405-17.182,23.405-32.205
	c0-15.023-9.836-27.791-23.405-32.205v-7.763h0.294c3.083,0,6.009-1.361,7.995-3.721c1.985-2.359,2.827-5.475,2.301-8.513
	L360.657,89.55c-0.868-5.007-5.213-8.664-10.295-8.664h-0.874c-16.514-36.275-53.17-60.177-93.437-60.177
	s-76.924,23.902-93.437,60.177h-0.771c-5.075,0-9.417,3.648-10.292,8.647l-10.524,60.104c-0.532,3.04,0.306,6.161,2.291,8.523
	c1.985,2.363,4.914,3.727,8.001,3.727h0.191v7.763c-13.569,4.414-23.405,17.182-23.405,32.205c0,15.022,9.836,27.791,23.405,32.205
	v8.675c0,0.265,0.01,0.532,0.03,0.796c1.319,17.258,9.629,32.752,22.326,41.884h-56.504V235.29c0-5.771-4.678-10.449-10.449-10.449
	H62.287c-5.771,0-10.449,4.678-10.449,10.449v3.157H27.763c-5.771,0-10.449,4.678-10.449,10.449v36.517h-6.607
	c-5.771,0-10.449,4.678-10.449,10.449c0,5.771,4.678,10.449,10.449,10.449h6.607v36.517c0,5.771,4.678,10.449,10.449,10.449h24.075
	v3.157c0,5.771,4.678,10.449,10.449,10.449h44.627c5.771,0,10.449-4.678,10.449-10.449v-50.122h86.073v12.46
	c0,2.59-1.545,4.908-3.936,5.905l-67.249,28.02c-17.599,7.334-29.89,26.679-29.89,47.045v70.651H44.39
	c-5.771,0-10.449,4.678-10.449,10.449c0,5.771,4.678,10.449,10.449,10.449H467.61c5.771,0,10.449-4.678,10.449-10.449
	c0-1.975-0.558-3.815-1.51-5.391c4.469-3.205,8.61-6.839,12.375-10.831c0.055-0.048,0.114-0.09,0.168-0.14
	c0.528-0.484,0.993-1.009,1.398-1.567c13.364-14.968,21.51-34.689,21.51-56.29C512,384.802,503.699,364.886,490.094,349.857z
	 M51.838,332.38H38.212v-73.034h13.627V332.38z M96.465,345.986H72.736v-3.157v-93.932v-3.157h23.729V345.986z M170.621,101.784
	h170.947l6.798,39.206h-184.61L170.621,101.784z M256.051,41.607c28.751,0,55.197,15.297,69.837,39.279H186.213
	C200.854,56.904,227.3,41.607,256.051,41.607z M186.654,268.886c-7.985-5.406-13.285-15.293-14.246-26.572V225.26
	c0-5.771-4.678-10.449-10.449-10.449c-7.144,0-12.956-5.813-12.956-12.956c0-7.143,5.813-12.956,12.956-12.956
	c5.771,0,10.449-4.678,10.449-10.449v-16.563h167.184v16.563c0,5.771,4.678,10.449,10.449,10.449
	c7.144,0,12.956,5.813,12.956,12.956c0,7.143-5.813,12.956-12.956,12.956c-5.771,0-10.449,4.678-10.449,10.449v17.052
	c-0.949,11.05-6.443,21.176-14.421,26.577l-56.1,32.167c-0.191,0.11-0.377,0.225-0.561,0.346c-7.832,5.173-17.185,5.174-25.02,0
	c-0.187-0.124-0.377-0.241-0.573-0.352L186.654,268.886z M287.667,314.484v41.822c0,17.381-14.182,31.521-31.615,31.521
	c-17.488,0-31.717-14.141-31.717-31.521v-41.808l7.939,4.539c7.334,4.764,15.53,7.145,23.728,7.145
	c8.199,0,16.398-2.383,23.733-7.149L287.667,314.484z M148.438,470.393h-25.179v-70.651c0-11.777,7.322-23.71,17.031-27.756
	l4.87-2.029c2.154,4.628,3.277,9.657,3.277,14.856v85.579H148.438z M300.464,470.393h-88.559v-38.661h88.559V470.393z
	 M342.664,384.814v85.58H321.36v-49.11c0-5.771-4.678-10.449-10.449-10.449H201.455c-5.771,0-10.449,4.678-10.449,10.449v49.11
	h-21.67v-85.58c0-8.004-1.667-15.748-4.869-22.9l38.969-16.237v10.63c0,28.904,23.603,52.419,52.615,52.419
	c28.956,0,52.513-23.515,52.513-52.419v-10.63l38.969,16.237C344.331,369.066,342.664,376.81,342.664,384.814z M388.742,438.093
	c-0.001,0.039,0,0.078,0,0.117v32.184h-25.18v-85.58c0-5.199,1.123-10.227,3.278-14.856l4.871,2.029
	c9.709,4.046,17.031,15.978,17.031,27.756V438.093z M416.883,469.526c-2.445-0.405-4.863-0.945-7.244-1.631v-22.228
	c2.38-0.688,4.797-1.228,7.244-1.631V469.526z M416.883,422.934c-2.436,0.3-4.851,0.701-7.244,1.211v-24.403
	c0-3.769-0.444-7.497-1.242-11.127c2.795,0.645,5.627,1.147,8.486,1.506v32.813H416.883z M416.883,369.022
	c-10.475-1.752-20.385-6.106-28.77-12.64c8.383-6.548,18.262-10.911,28.77-12.659V369.022z M437.781,343.723
	c10.723,1.775,20.545,6.236,28.762,12.665c-8.384,6.531-18.291,10.882-28.762,12.634V343.723z M437.781,469.523v-25.471
	c10.519,1.76,20.466,6.14,28.875,12.718C458.414,463.246,448.553,467.739,437.781,469.523z M480.79,441.327
	c-12.314-10.016-27.252-16.401-43.009-18.375v-32.831c15.724-1.972,30.634-8.335,42.935-18.318
	c6.557,10.018,10.385,21.977,10.385,34.819C491.102,419.417,487.302,431.332,480.79,441.327z"/>
</svg>