<?xml version="1.0" encoding="iso-8859-1"?>
<!-- Uploaded to: SVG Repo, www.svgrepo.com, Generator: SVG Repo Mixer Tools -->
<svg fill="#000000" version="1.1" id="Layer_1" xmlns="http://www.w3.org/2000/svg" xmlns:xlink="http://www.w3.org/1999/xlink" 
	 viewBox="0 0 512 512" xml:space="preserve">
<g>
	<g>
		<g>
			<path d="M119.467,413.867c-9.421,0-17.067,7.646-17.067,17.067c0,9.421,7.646,17.067,17.067,17.067s17.067-7.646,17.067-17.067
				C136.533,421.513,128.887,413.867,119.467,413.867z"/>
			<path d="M119.467,379.733c-28.237,0-51.2,22.963-51.2,51.2c0,28.237,22.963,51.2,51.2,51.2s51.2-22.963,51.2-51.2
				C170.667,402.697,147.703,379.733,119.467,379.733z M119.467,465.067c-18.825,0-34.133-15.309-34.133-34.133
				s15.309-34.133,34.133-34.133s34.133,15.309,34.133,34.133S138.291,465.067,119.467,465.067z"/>
			<path d="M452.267,413.867c-9.421,0-17.067,7.646-17.067,17.067c0,9.421,7.646,17.067,17.067,17.067
				c9.421,0,17.067-7.646,17.067-17.067C469.333,421.513,461.688,413.867,452.267,413.867z"/>
			<path d="M452.267,379.733c-28.237,0-51.2,22.963-51.2,51.2c0,28.237,22.963,51.2,51.2,51.2c28.237,0,51.2-22.963,51.2-51.2
				C503.467,402.697,480.503,379.733,452.267,379.733z M452.267,465.067c-18.825,0-34.133-15.309-34.133-34.133
				s15.309-34.133,34.133-34.133c18.825,0,34.133,15.309,34.133,34.133S471.091,465.067,452.267,465.067z"/>
			<path d="M497.374,342.861C484.617,328.337,465.109,320,443.87,320h-1.954c-7.185-25.37-25.156-46.157-49.382-56.909V214.34
				l4.719,2.364c1.178,0.589,2.492,0.896,3.814,0.896h17.067c4.719,0,8.533-3.823,8.533-8.533v-51.2c0-4.71-3.814-8.533-8.533-8.533
				h-17.067c-1.323,0-2.637,0.307-3.814,0.896l-17.067,8.533c-2.893,1.451-4.719,4.403-4.719,7.637h-76.8
				c-4.719,0-8.533,3.823-8.533,8.533h-42.667V153.6c0-14.012-7.629-26.172-18.867-32.879c11.503-9.395,18.867-23.68,18.867-39.654
				c0-28.237-22.963-51.2-51.2-51.2s-51.2,22.963-51.2,51.2c0,17.835,9.173,33.545,23.04,42.718
				c-8.772,7.04-14.507,17.715-14.507,29.815v128c0,7.893,2.406,15.224,6.502,21.333h-23.569V192c0-4.71-3.814-8.533-8.533-8.533
				H93.867v42.667c0,4.71-3.814,8.533-8.533,8.533H51.2c-4.719,0-8.533-3.823-8.533-8.533v-42.667H8.533
				C3.814,183.467,0,187.29,0,192v119.467C0,316.177,3.814,320,8.533,320h4.745c-2.935,5.043-4.745,10.82-4.745,17.067v10.59
				c0,6.92,3.703,13.517,9.899,17.647c7.177,4.779,9.37,14.336,4.992,21.76l-10.598,18.039c-3.763,5.009-5.146,11.349-3.78,17.493
				c1.399,6.366,5.538,11.691,11.375,14.601c2.961,1.485,6.289,2.27,9.609,2.27H51.2c4.719,0,8.533-3.823,8.533-8.533
				c0-32.939,26.803-59.733,59.733-59.733s59.733,26.795,59.733,59.733c0,4.71,3.814,8.533,8.533,8.533H384
				c4.719,0,8.533-3.823,8.533-8.533c0-32.939,26.803-59.733,59.733-59.733c28.544,0,36.096,5.504,45.167,14.566
				c2.449,2.449,6.118,3.174,9.301,1.852c3.192-1.323,5.265-4.437,5.265-7.885C512,366.498,506.94,353.749,497.374,342.861z
				 M290.133,226.133c0,4.71,3.814,8.533,8.533,8.533h42.667v153.6h-10.795l-35.763-114.432
				c-4.122-13.218-16.196-22.101-30.242-22.101H230.4l-0.009-25.6H290.133z M233.088,373.026
				c3.883-11.605,5.845-23.697,5.845-35.925c0.009-6.118-1.724-11.938-4.727-17.101h15.445l20.48,68.267h-43.733L233.088,373.026z
				 M452.267,354.133c-39.467,0-72.064,29.918-76.322,68.267H195.789c-4.258-38.349-36.855-68.267-76.322-68.267
				S47.403,384.051,43.145,422.4H30.029c-0.691,0-1.374-0.162-1.98-0.469c-1.647-0.819-2.176-2.227-2.338-3.004
				c-0.179-0.768-0.29-2.27,0.862-3.712c0.256-0.316,0.486-0.649,0.691-0.998l10.871-18.492c8.969-15.232,4.471-34.833-10.24-44.629
				c-0.691-0.461-2.295-1.715-2.295-3.439v-10.59c0-9.412,7.654-17.067,17.067-17.067H128h64h12.8c4.557,0,8.841,1.775,12.066,5.009
				s5.001,7.526,5.001,12.092c0,10.394-1.664,20.659-4.676,29.781l-11.665,26.479c-1.169,2.637-0.913,5.683,0.657,8.098
				c1.579,2.415,4.267,3.874,7.151,3.874H281.6h42.667h25.6c4.719,0,8.533-3.823,8.533-8.533V226.133
				c0-4.71-3.814-8.533-8.533-8.533H317.73c1.186-1.323,2.185-2.79,3.072-4.335c0.043-0.068,0.068-0.154,0.111-0.23
				c0.648-1.143,1.246-2.313,1.707-3.558c0.324-0.836,0.521-1.715,0.751-2.594c0.154-0.597,0.358-1.169,0.469-1.784
				c0.017-0.111,0.068-0.213,0.085-0.324c0.077-0.469,0.026-0.93,0.077-1.399c0.102-0.939,0.265-1.869,0.265-2.842
				c0-0.265-0.068-0.512-0.077-0.777c-0.017-0.631-0.102-1.237-0.171-1.86c-0.119-1.143-0.282-2.261-0.546-3.354
				c-0.154-0.614-0.333-1.212-0.521-1.809c-0.341-1.058-0.742-2.074-1.212-3.063c-0.282-0.589-0.546-1.169-0.87-1.732
				c-0.58-1.015-1.246-1.954-1.946-2.876c-0.273-0.358-0.461-0.768-0.751-1.109c-0.077-0.094-0.179-0.154-0.265-0.247
				c-0.06-0.077-0.111-0.162-0.179-0.239h57.737v17.067V268.8c0,3.49,2.125,6.622,5.359,7.919l2.278,0.913
				c22.605,9.045,38.955,28.698,43.733,52.574c0.794,3.994,4.292,6.861,8.363,6.861h8.67c16.333,0,31.164,6.221,40.687,17.067
				c1.425,1.613,2.714,3.285,3.84,4.992C479.684,355.772,468.574,354.133,452.267,354.133z"/>
			<rect x="59.733" y="183.467" width="17.067" height="34.133"/>
		</g>
	</g>
</g>
</svg>