<?xml version="1.0" encoding="utf-8"?>
<!-- Uploaded to: SVG Repo, www.svgrepo.com, Generator: SVG Repo Mixer Tools -->
<svg width="800px" height="800px" viewBox="0 -0.96 65 65" xmlns="http://www.w3.org/2000/svg">
  <g id="Group_60" data-name="Group 60" transform="translate(-455 -458)">
    <path id="Path_60" data-name="Path 60" d="M475,520.083h44l-4-52H473Z" fill="#99ecff" stroke="#333" stroke-linecap="round" stroke-linejoin="round" stroke-width="2"/>
    <path id="Path_61" data-name="Path 61" d="M511,520.083H469l4-52h42Z" fill="#99ecff" stroke="#333" stroke-linecap="round" stroke-linejoin="round" stroke-width="2"/>
    <path id="Path_62" data-name="Path 62" d="M463.167,520.083h22l-2-34h-21Z" fill="#ffc2c2" stroke="#333" stroke-linecap="round" stroke-linejoin="round" stroke-width="2"/>
    <path id="Path_63" data-name="Path 63" d="M481,520.083H456l2-34h25Z" fill="#ffc2c2" stroke="#333" stroke-linecap="round" stroke-linejoin="round" stroke-width="2"/>
    <path id="Path_64" data-name="Path 64" d="M464.663,492.333v2a5,5,0,0,0,5,5h0a5,5,0,0,0,5-5l-.007-2" fill="none" stroke="#333" stroke-miterlimit="10" stroke-width="2"/>
    <g id="Group_59" data-name="Group 59">
      <path id="Path_65" data-name="Path 65" d="M502,477l0-9a9,9,0,0,0-9-9h0a9,9,0,0,0-9,9v9" fill="none" stroke="#333" stroke-linecap="round" stroke-linejoin="round" stroke-width="2"/>
      <line id="Line_79" data-name="Line 79" x2="6" transform="translate(481 478)" fill="#ffffff" stroke="#333" stroke-miterlimit="10" stroke-width="2"/>
      <line id="Line_80" data-name="Line 80" x2="6" transform="translate(499 478)" fill="#ffffff" stroke="#333" stroke-miterlimit="10" stroke-width="2"/>
    </g>
  </g>
</svg>