<?xml version="1.0" encoding="iso-8859-1"?>
<!-- Uploaded to: SVG Repo, www.svgrepo.com, Generator: SVG Repo Mixer Tools -->
<svg fill="#000000" height="800px" width="800px" version="1.1" id="Layer_1" xmlns="http://www.w3.org/2000/svg" xmlns:xlink="http://www.w3.org/1999/xlink" 
	 viewBox="0 0 512 512" xml:space="preserve">
<g>
	<g>
		<circle cx="256.763" cy="44.89" r="44.89"/>
	</g>
</g>
<g>
	<g>
		<path d="M269.99,136.099l-8.011-14.569l7.108-12.927c1.059-1.927-0.337-4.293-2.539-4.293h-19.529
			c-2.199,0-3.599,2.364-2.538,4.293l7.123,12.954l-8.025,14.597c-0.931,1.694-1.235,3.663-0.859,5.559l1.373,6.914l12.692,3.489
			l12.58-3.458l1.464-6.893C271.237,139.837,270.94,137.827,269.99,136.099z"/>
	</g>
</g>
<g>
	<g>
		<path d="M237.477,414.547v51.505c0,14.355,11.637,25.991,25.992,25.991s25.992-11.637,25.992-25.991V353.595L237.477,414.547z"/>
	</g>
</g>
<g>
	<g>
		<path d="M165.014,426.411c-8.735-7.45-14.097-17.385-15.935-27.873v47.32c0,7.531,6.105,13.637,13.637,13.637
			c7.532,0,13.637-6.106,13.637-13.637V433.59C172.348,431.788,168.525,429.404,165.014,426.411z"/>
	</g>
</g>
<g>
	<g>
		<path d="M176.353,301.556h-27.274v80.568c1.409-8.076,4.921-15.893,10.627-22.583l16.648-19.519v-38.466H176.353z"/>
	</g>
</g>
<g>
	<g>
		<path d="M335.254,301.556v144.302c0,7.531,6.105,13.637,13.637,13.637s13.637-6.106,13.637-13.637V301.556H335.254z"/>
	</g>
</g>
<g>
	<g>
		<path d="M237.34,301.556l-61.321,71.898c-9.315,10.922-8.012,27.327,2.909,36.642c10.932,9.322,27.335,8.005,36.642-2.909
			l90.091-105.631H237.34z"/>
	</g>
</g>
<g>
	<g>
		<path d="M218.382,192.209c-5.347,0.013-43.728,0.109-49.016,0.122c9.866-20.868,7.628-16.136,17.359-36.72
			c2.282-4.828,7.126-7.991,12.438-8.184v24.984l14.487-0.037v-24.967c0-1.186-0.159-3.192,1.849-4.723
			c1.165-0.888,2.679-1.182,4.093-0.794c2.979,0.819,18.824,5.175,20.548,5.649c-0.089-0.23-16.704-43.32-16.755-43.452h-23.711
			c-22.18,0-42.635,12.956-52.115,33.009c-3.156,6.676-28.973,61.287-32.014,67.721c-7.011,14.837,4.623,31.417,19.638,30.917
			c9.328-0.023,74.697-0.186,83.308-0.207c11.963-0.03,21.636-9.752,21.606-21.714C240.065,201.135,229.27,191.869,218.382,192.209z
			"/>
	</g>
</g>
<g>
	<g>
		<path d="M470.545,255.507c-1.571,0-416.533,0-429.088,0c-7.254,0-13.135,5.881-13.135,13.135c0,7.255,5.881,13.135,13.135,13.135
			h14.139V491.84c0,11.133,9.026,20.159,20.159,20.159s20.159-9.026,20.159-20.159V281.777c14.377,0,306.504,0,321.36,0v210.064
			c0,11.133,9.026,20.159,20.159,20.159s20.159-9.026,20.159-20.159V281.777h12.953c7.254,0,13.135-5.881,13.135-13.135
			C483.681,261.388,477.8,255.507,470.545,255.507z"/>
	</g>
</g>
<g>
	<g>
		<path d="M397.697,204.822c-3.035-6.419-28.863-61.056-32.014-67.721c-9.48-20.052-29.935-33.009-52.115-33.009H290.18
			c-0.087,0.228-16.663,43.219-16.752,43.45c1.791-0.492,17.585-4.834,20.548-5.649c1.413-0.388,2.926-0.095,4.093,0.794
			c2.008,1.53,1.849,3.537,1.849,4.723v25.164h13.972v-25.152c5.388,0.122,10.321,3.304,12.63,8.191
			c9.738,20.601,7.622,16.123,17.399,36.805c-18.136,0-30.897,0-49.111,0c-11.963,0-21.66,9.697-21.66,21.66
			s9.697,21.66,21.66,21.66c8.772,0,74.415,0,83.308,0C393.94,235.738,404.503,219.213,397.697,204.822z"/>
	</g>
</g>
</svg>