<?xml version="1.0" encoding="iso-8859-1"?>
<!-- Uploaded to: SVG Repo, www.svgrepo.com, Generator: SVG Repo Mixer Tools -->
<svg version="1.1" id="Layer_1" xmlns="http://www.w3.org/2000/svg" xmlns:xlink="http://www.w3.org/1999/xlink" 
	 viewBox="0 0 512 512" xml:space="preserve">
<circle style="fill:#1990DF;" cx="115.44" cy="107.968" r="70.959"/>
<rect x="10.501" y="290.042" style="fill:#1990E0;" width="203.055" height="136.485"/>
<rect x="10.501" y="290.042" style="fill:#FFEFC6;" width="203.055" height="110.665"/>
<path style="fill:#FEBBA0;" d="M213.885,312.339v20.355c0,6.8-4.089,12.934-10.366,15.55l-67.248,28.02
	c-14.207,5.92-23.461,22.01-23.461,37.401v81.1h286.38v-81.1c0-15.39-9.255-31.482-23.461-37.401l-67.248-28.02
	c-6.278-2.615-10.366-8.75-10.366-15.55v-20.355H213.885z"/>
<path style="fill:#ECEBED;" d="M375.729,376.263l-67.248-28.02c-5.2-2.166-8.89-6.75-10.006-12.125
	c-8.885,14.065-24.558,23.415-42.424,23.415c-17.918,0-33.632-9.404-42.502-23.537c-1.085,5.427-4.79,10.064-10.03,12.248
	l-67.248,28.02c-14.207,5.92-23.461,22.01-23.461,37.401v81.1h286.38v-81.1C399.19,398.273,389.935,382.183,375.729,376.263z"/>
<g>
	<path style="fill:#DEDDE1;" d="M213.548,335.996c-1.085,5.427-4.79,10.064-10.03,12.248l-1.628,0.678l19.504,54.629l34.656-44.018
		C238.132,359.534,222.419,350.13,213.548,335.996z"/>
	<path style="fill:#DEDDE1;" d="M298.556,335.996c1.086,5.427,4.79,10.064,10.03,12.248l1.628,0.678l-19.504,54.629l-34.656-44.018
		C273.971,359.534,289.685,350.13,298.556,335.996z"/>
</g>
<path style="fill:#FEBBA0;" d="M350.041,192.372v-30.446c0-51.835-42.022-93.857-93.857-93.857
	c-51.836,0-93.857,42.022-93.857,93.857h-0.368v30.446c-12.926,0-23.406,10.479-23.406,23.406c0,12.926,10.479,23.406,23.406,23.406
	v17.474c1.126,14.736,8.312,27.856,19.194,35.042l56.58,32.346c11.361,7.503,25.176,7.503,36.537,0l56.411-32.346
	c10.881-7.186,18.234-20.306,19.362-35.042v-17.474c12.926,0,23.406-10.479,23.406-23.406
	C373.447,202.85,362.967,192.372,350.041,192.372z"/>
<path style="fill:#FBC45E;" d="M345.573,63.164c-17.706-22.562-36.43-27.378-50.334-20.612
	c-11.023-9.421-27.538-18.829-55.121-18.829c-62.303,0-96.395,47.799-96.395,90.283c0,45.337,18.238,74.23,18.238,74.23
	s6.795-47.689,53.479-47.689c31.209,0,50.015-12.39,63.139-27.595c5.578,14.532,32.586,20.634,43.195,30.013
	c20.999,18.558,28.252,33.085,28.252,33.085S383.118,110.998,345.573,63.164z"/>
<path style="fill:#FFCDBA;" d="M433.684,427.891c0,12.069,9.874,21.943,21.943,21.943l0,0c12.069,0,21.943-9.874,21.943-21.943
	l-3.657-361.012c0-10.057-8.229-18.286-18.286-18.286l0,0c-10.057,0-18.286,8.229-18.286,18.286L433.684,427.891z"/>
<path style="fill:#D56B5D;" d="M433.684,427.891c0,12.069,9.874,21.943,21.943,21.943c12.069,0,21.943-9.874,21.943-21.943
	l-0.953-94.041h-41.981L433.684,427.891z"/>
<path d="M75.253,330.043H41.454c-5.771,0-10.449-4.678-10.449-10.449c0-5.771,4.678-10.449,10.449-10.449h33.798
	c5.771,0,10.449,4.678,10.449,10.449C85.701,325.365,81.023,330.043,75.253,330.043z"/>
<path d="M75.253,355.906H41.454c-5.771,0-10.449-4.678-10.449-10.449c0-5.771,4.678-10.449,10.449-10.449h33.798
	c5.771,0,10.449,4.678,10.449,10.449C85.701,351.228,81.023,355.906,75.253,355.906z"/>
<path d="M75.253,381.768H41.454c-5.771,0-10.449-4.678-10.449-10.449c0-5.771,4.678-10.449,10.449-10.449h33.798
	c5.771,0,10.449,4.678,10.449,10.449C85.701,377.09,81.023,381.768,75.253,381.768z"/>
<path d="M156.263,330.043h-11.404c-5.771,0-10.449-4.678-10.449-10.449c0-5.771,4.678-10.449,10.449-10.449h11.404
	c5.771,0,10.449,4.678,10.449,10.449C166.712,325.365,162.034,330.043,156.263,330.043z"/>
<path d="M155.48,355.906h-10.62c-5.771,0-10.449-4.678-10.449-10.449c0-5.771,4.678-10.449,10.449-10.449h10.62
	c5.771,0,10.449,4.678,10.449,10.449C165.929,351.228,161.251,355.906,155.48,355.906z"/>
<path d="M10.586,505.213h-0.137C4.678,505.213,0,500.535,0,494.764c0-5.771,4.678-10.449,10.449-10.449h0.137
	c5.771,0,10.449,4.678,10.449,10.449C21.035,500.535,16.357,505.213,10.586,505.213z"/>
<path d="M501.551,505.213h-0.137c-5.771,0-10.449-4.678-10.449-10.449c0-5.771,4.678-10.449,10.449-10.449h0.137
	c5.771,0,10.449,4.678,10.449,10.449C512,500.535,507.322,505.213,501.551,505.213z"/>
<path d="M294.106,228.686c-6.441,0-11.68-5.239-11.68-11.679c0-6.441,5.239-11.68,11.68-11.68c6.441,0,11.68,5.239,11.68,11.68
	C305.786,223.447,300.547,228.686,294.106,228.686z"/>
<path d="M217.894,228.686c-6.441,0-11.68-5.239-11.68-11.679c0-6.441,5.239-11.68,11.68-11.68s11.68,5.239,11.68,11.68
	C229.572,223.447,224.333,228.686,217.894,228.686z"/>
<path d="M256.044,285.667c-11.391,0-20.66-9.268-20.66-20.66c0-5.771,4.678-10.449,10.449-10.449h20.422
	c5.771,0,10.449,4.678,10.449,10.449C276.703,276.399,267.435,285.667,256.044,285.667z"/>
<path d="M296.584,460.283h-0.137c-5.771,0-10.449-4.678-10.449-10.449c0-5.771,4.678-10.449,10.449-10.449h0.137
	c5.771,0,10.449,4.678,10.449,10.449C307.033,455.605,302.355,460.283,296.584,460.283z"/>
<path d="M369.59,460.283h-39.202c-5.771,0-10.449-4.678-10.449-10.449c0-5.771,4.678-10.449,10.449-10.449h39.202
	c5.771,0,10.449,4.678,10.449,10.449C380.039,455.605,375.361,460.283,369.59,460.283z"/>
<path d="M215.3,460.283h-0.137c-5.771,0-10.449-4.678-10.449-10.449c0-5.771,4.678-10.449,10.449-10.449h0.137
	c5.771,0,10.449,4.678,10.449,10.449C225.749,455.605,221.071,460.283,215.3,460.283z"/>
<path d="M181.359,460.283h-39.201c-5.771,0-10.449-4.678-10.449-10.449c0-5.771,4.678-10.449,10.449-10.449h39.201
	c5.771,0,10.449,4.678,10.449,10.449C191.808,455.605,187.13,460.283,181.359,460.283z"/>
<path d="M488.017,427.785L484.36,66.817C484.327,51,471.45,38.144,455.626,38.144S426.924,51,426.891,66.817l-3.657,360.968
	c0,0.036,0,0.07,0,0.106c0,17.86,14.531,32.392,32.392,32.392c17.86,0,32.392-14.531,32.392-32.392
	C488.019,427.855,488.019,427.821,488.017,427.785z M447.79,66.879c0-4.322,3.515-7.837,7.837-7.837s7.837,3.515,7.837,7.837
	c0,0.036,0,0.07,0,0.106l2.598,256.417h-20.87l2.598-256.417C447.79,66.95,447.79,66.914,447.79,66.879z M455.627,439.385
	c-6.323,0-11.47-5.132-11.494-11.449l0.847-83.637h21.293l0.847,83.637C467.095,434.253,461.949,439.385,455.627,439.385z"/>
<path d="M467.661,484.315H409.64v-70.651c0-20.367-12.292-39.713-29.891-47.047l-67.248-28.019
	c-2.391-0.996-3.936-3.313-3.936-5.905v-16.271l27.313-15.661c0.19-0.109,0.377-0.225,0.561-0.346
	c13.676-9.031,22.657-25.093,24.022-42.965c0.021-0.264,0.03-0.531,0.03-0.796v-8.675c13.569-4.414,23.405-17.182,23.405-32.205
	c0-15.023-9.836-27.791-23.405-32.205v-5.186c5.962-12.972,30.713-74.012-6.697-121.673c-17.287-22.03-38.021-31.39-56.694-26.032
	c-15.796-11.704-34.503-17.407-56.98-17.407c-32.002,0-57.836,11.732-76.083,29.388c-13.99-10.431-30.94-16.109-48.593-16.109
	c-18.686,0-35.908,6.344-49.663,16.969L48.635,26.374c-0.002-0.002-0.004-0.005-0.007-0.007S32.1,9.845,32.1,9.845
	c-4.08-4.08-10.697-4.08-14.777,0s-4.081,10.697,0,14.777l9.474,9.475c-37.794,45.288-35.449,112.961,7.051,155.461
	c19.399,19.399,44.596,30.951,71.144,33.342v15.866h-3.206c-5.771,0-10.449,4.678-10.449,10.449s4.678,10.449,10.449,10.449h27.309
	c5.771,0,10.449-4.678,10.449-10.449s-4.678-10.449-10.449-10.449h-3.206v-15.883c0.976-0.089,1.952-0.191,2.929-0.305
	c2.454,11.977,11.227,21.677,22.691,25.406v8.675c0,0.265,0.01,0.532,0.03,0.796c0.603,7.894,2.67,15.423,5.947,22.143H10.5
	c-5.771,0-10.449,4.678-10.449,10.449v136.482c0,5.771,4.678,10.449,10.449,10.449h91.861v47.34h-57.92
	c-5.771,0-10.449,4.678-10.449,10.449s4.678,10.449,10.449,10.449h423.219c5.771,0,10.449-4.678,10.449-10.449
	S473.432,484.315,467.661,484.315z M240.119,34.172c26.203,0,40.133,9.316,48.332,16.323c3.161,2.702,7.623,3.271,11.362,1.452
	c10.727-5.22,24.762,1.382,37.541,17.666l0,0c21.949,27.964,16.228,63.64,9.907,84.452c-4.608-5.502-10.703-11.981-18.566-18.929
	c-5.032-4.448-11.886-7.787-19.143-11.32c-8.556-4.167-19.202-9.353-21.219-14.607c-1.317-3.43-4.338-5.917-7.958-6.549
	c-3.622-0.631-7.306,0.684-9.707,3.466c-14.119,16.356-31.669,23.973-55.229,23.973c-28.874,0-44.801,15.613-53.079,28.712
	c-0.367,0.58-0.72,1.159-1.064,1.738c-3.725-11.667-7.125-27.527-7.125-46.541C154.173,74.764,186.32,34.172,240.119,34.172z
	 M298.244,174.889c-20.593,0-37.867,14.438-42.259,33.721c-4.392-19.283-21.665-33.721-42.259-33.721
	c-13.199,0-25.031,5.936-32.988,15.271l-7.7-3.894c2.413-9.558,11.75-35.268,42.401-35.268c25.025,0,45.472-7.26,62.14-22.131
	c6.467,5.772,14.973,9.915,22.822,13.737c5.68,2.766,11.552,5.627,14.454,8.191c14.736,13.024,22.156,23.861,24.737,28.057v7.147
	l-8.275,4.259C323.359,180.866,311.489,174.889,298.244,174.889z M320.696,218.237c0,12.38-10.072,22.452-22.452,22.452
	s-22.452-10.072-22.452-22.452s10.072-22.451,22.452-22.451S320.696,205.857,320.696,218.237z M236.178,218.237
	c0,12.38-10.072,22.452-22.452,22.452c-12.38,0-22.452-10.072-22.452-22.452s10.072-22.451,22.452-22.451
	C226.106,195.787,236.178,205.857,236.178,218.237z M150.564,58.697c-11.269,16.633-17.289,36.098-17.289,55.31
	c0,19.52,3.173,36.179,6.983,49.155c-7.757,3.485-16.234,5.311-24.816,5.311c-33.366,0-60.511-27.145-60.511-60.511
	s27.145-60.51,60.511-60.51C128.146,47.452,140.362,51.409,150.564,58.697z M131.473,201.09c-5.327,0.914-10.666,1.36-15.971,1.367
	c-0.021,0-0.04-0.003-0.061-0.003c-0.022,0-0.044,0.003-0.066,0.003c-24.811,0.001-48.811-9.741-66.75-27.679
	c-34.345-34.345-36.658-88.759-6.971-125.826l9.347,9.347c-10.626,13.756-16.969,30.978-16.969,49.664
	c0,44.889,36.52,81.409,81.409,81.409c11.038,0,21.948-2.256,32.018-6.558c0.308,0.689,0.612,1.355,0.906,1.982
	C140.985,188.046,134.979,193.856,131.473,201.09z M149.003,215.777c0-6.421,4.7-11.751,10.838-12.768l11.57,5.851
	c-0.669,3.022-1.033,6.157-1.033,9.377c0,23.903,19.447,43.35,43.35,43.35c20.593,0,37.867-14.438,42.259-33.722
	c4.392,19.283,21.665,33.722,42.259,33.722c23.903,0,43.35-19.447,43.35-43.35c0-3.174-0.352-6.267-1.003-9.249l11.605-5.974
	c6.12,1.03,10.802,6.353,10.802,12.762c0,7.144-5.813,12.956-12.956,12.956c-5.771,0-10.449,4.678-10.449,10.449v17.052
	c-0.949,11.05-6.443,21.176-14.421,26.577l-56.1,32.167c-0.191,0.11-0.377,0.225-0.561,0.346c-7.831,5.173-17.185,5.174-25.02,0
	c-0.187-0.124-0.377-0.241-0.573-0.352l-56.264-32.164c-7.985-5.406-13.285-15.293-14.246-26.572v-17.054
	c0-5.771-4.678-10.449-10.449-10.449C154.815,228.733,149.003,222.921,149.003,215.777z M123.258,300.494h51.639
	c0.194,0,0.382-0.019,0.575-0.029c0.163,0.106,0.327,0.208,0.495,0.305l27.469,15.704v16.221c0,2.59-1.545,4.908-3.936,5.905
	l-67.249,28.02c-3.187,1.328-6.196,3.054-8.992,5.104v-71.23H123.258z M102.36,413.665v2.414H20.949v-4.919h81.412v2.506H102.36z
	 M102.36,390.261H20.949v-89.767h81.412v89.767H102.36z M245.602,484.315H123.258v-57.789v-12.863
	c0-11.777,7.322-23.71,17.031-27.756L195.75,362.8l15.804,44.264c1.279,3.582,4.402,6.186,8.155,6.799
	c0.563,0.092,1.126,0.137,1.686,0.137c3.171,0,6.21-1.446,8.209-3.985l15.997-20.319V484.315z M214.688,353.69
	c6.391,5.992,13.972,10.494,22.249,13.229l-12.057,15.315L214.688,353.69z M224.316,333.202c0.003-0.17,0.019-0.337,0.019-0.508
	v-4.275l7.939,4.539c7.334,4.764,15.53,7.145,23.728,7.145c8.199,0,16.398-2.383,23.733-7.149l7.933-4.548v4.288
	c0,0.213,0.019,0.422,0.023,0.633c-7.495,9.917-19.081,15.757-31.638,15.757C243.432,349.085,231.806,343.198,224.316,333.202z
	 M297.418,353.684l-10.193,28.551l-12.06-15.318C283.441,364.179,291.025,359.678,297.418,353.684z M388.742,484.315H266.5v-94.621
	l15.999,20.321c2,2.54,5.037,3.985,8.209,3.985c0.56,0,1.123-0.045,1.686-0.137c3.753-0.613,6.876-3.217,8.155-6.799l15.79-44.227
	l55.37,23.07c9.709,4.046,17.031,15.978,17.031,27.756V484.315z"/>
</svg>