<?xml version="1.0" encoding="iso-8859-1"?>
<!-- Uploaded to: SVG Repo, www.svgrepo.com, Generator: SVG Repo Mixer Tools -->
<svg height="800px" width="800px" version="1.1" id="Layer_1" xmlns="http://www.w3.org/2000/svg" xmlns:xlink="http://www.w3.org/1999/xlink" 
	 viewBox="0 0 512 512" xml:space="preserve">
<path style="fill:#FF5E8A;" d="M496.582,161.91c-3.546-66.255-57.727-120.976-124.076-120.976
	c-65.277,0-116.49,72.782-116.49,72.782s-48.31-72.782-116.521-72.782c-66.345,0-120.524,54.722-124.07,120.976
	c-1.997,37.43,10.069,65.917,27.07,91.716c33.972,51.545,182.493,175.64,213.739,175.64c31.89,0,179.089-123.642,213.286-175.64
	C486.555,227.708,498.589,199.34,496.582,161.91z"/>
<path d="M151.167,298.667c-8.393,0-15.208-6.807-15.208-15.2c0-8.393,6.799-15.2,15.192-15.2h0.015c8.395,0,15.2,6.807,15.2,15.2
	C166.367,291.86,159.562,298.667,151.167,298.667z M119.328,269.075c-4.037,0-8.065-1.599-11.055-4.765
	c-10.111-10.711-24.81-28.29-29.122-34.835c-15.358-23.306-21.12-42.2-19.891-65.216c1.622-30.33,19.98-58.424,46.768-71.571
	c10.625-5.215,21.885-7.858,33.471-7.858c8.393,0,15.2,6.807,15.2,15.2s-6.807,15.2-15.2,15.2c-6.901,0-13.654,1.598-20.076,4.748
	c-17.061,8.374-28.76,26.392-29.804,45.903c-0.871,16.337,3.172,29.038,14.919,46.866c2.795,4.241,15.758,20.011,25.843,30.692
	c5.762,6.104,5.486,15.724-0.617,21.488C126.821,267.701,123.072,269.075,119.328,269.075z"/>
<circle style="fill:#BBDCE3;" cx="389.273" cy="377.266" r="93.801"/>
<path d="M457.596,292.422c10.149-11.064,18.734-21.49,24.626-30.447c15.042-22.887,31.996-55.035,29.54-100.877
	c-1.93-36.061-17.197-69.922-42.993-95.348c-26.182-25.807-60.369-40.017-96.26-40.017c-52.689,0-95.815,40.323-116.235,63.478
	c-19.841-23.297-62.001-63.478-116.776-63.478c-35.89,0-70.075,14.212-96.254,40.017C17.445,91.177,2.176,125.038,0.248,161.102
	c-1.914,35.849,7.202,66.965,29.555,100.889c20.052,30.426,72.272,78.539,110.893,110.495
	c23.966,19.828,46.567,36.866,65.363,49.271c30.497,20.128,42.835,22.709,50.174,22.709c9.164,0,22.461-5.743,37.582-14.647
	c18.584,33.621,54.399,56.448,95.458,56.448c60.104,0,109.001-48.897,109.001-109.001
	C498.274,343.014,482.38,312.42,457.596,292.422z M256.254,414.059c-7.899-0.774-41.168-19.318-97.598-66.172
	c-47.334-39.3-88.916-80.544-103.468-102.625c-18.546-28.146-26.127-53.603-24.585-82.541
	C33.75,103.949,82.598,56.133,139.497,56.133c59.07,0,103.427,65.348,103.854,65.99c2.773,4.175,7.431,6.709,12.444,6.784
	c5.027,0.065,9.745-2.335,12.64-6.427c0.47-0.664,47.599-66.347,104.072-66.347c56.901,0,105.751,47.816,108.899,106.589v0.002
	c1.567,29.262-5.787,53.95-24.586,82.55c-5.401,8.211-14.414,18.98-25.968,31.253c-12.821-5.311-26.859-8.26-41.577-8.26
	c-60.104,0-109.001,48.897-109.001,109.001c0,8.12,0.92,16.024,2.613,23.642C268.846,409.695,259.881,413.749,256.254,414.059z
	 M389.273,455.867c-43.341,0-78.601-35.26-78.601-78.601s35.26-78.601,78.601-78.601s78.601,35.26,78.601,78.601
	S432.615,455.867,389.273,455.867z"/>
<path d="M385.466,416.753c-2.68,0-5.381-0.707-7.813-2.166l-30.4-18.24c-7.199-4.32-9.532-13.656-5.215-20.854
	c4.318-7.2,13.656-9.533,20.854-5.215l19.652,11.792l30.972-34.469c5.61-6.246,15.224-6.758,21.466-1.148
	c6.244,5.61,6.758,15.221,1.148,21.465l-39.35,43.793C393.81,415.015,389.665,416.753,385.466,416.753z"/>
</svg>